<svg id="svg" xmlns="http://www.w3.org/2000/svg" xmlns:xlink="http://www.w3.org/1999/xlink" width="400" height="400" viewBox="0, 0, 400,400"><g id="svgg"><path id="path0" d="M208.481 113.875 C 208.454 273.737,208.098 291.963,204.864 299.442 C 186.956 340.854,133.750 347.920,107.013 312.437 C 95.368 296.983,92.515 274.739,99.962 257.465 C 111.451 230.817,139.144 217.312,167.453 224.552 C 169.495 225.074,171.224 225.443,171.295 225.372 C 171.730 224.937,172.538 151.838,172.113 151.413 C 170.323 149.623,146.965 148.653,136.750 149.945 C 39.193 162.281,-7.663 275.125,52.665 352.450 C 114.058 431.140,239.960 408.462,270.663 313.183 C 276.902 293.823,276.665 297.660,276.979 210.652 L 277.250 135.554 284.000 139.777 C 309.532 155.749,338.125 164.838,367.517 166.326 L 374.000 166.654 374.000 132.931 L 374.000 99.208 366.685 98.075 C 318.611 90.628,288.422 65.088,277.696 22.789 C 276.249 17.084,274.506 5.939,274.502 2.375 L 274.500 0.000 241.500 0.000 L 208.500 0.000 208.481 113.875 " stroke="none" fill="#000000" fill-rule="evenodd"></path></g></svg>