<svg id="svg" xmlns="http://www.w3.org/2000/svg" xmlns:xlink="http://www.w3.org/1999/xlink" width="400" height="315.1219512195122" viewBox="0, 0, 400,315.1219512195122"><g id="svgg"><path id="path0" d="M140.244 20.769 C 98.982 27.107,64.031 42.679,52.736 59.756 C 29.733 94.534,7.305 179.755,5.528 239.138 L 5.211 249.738 6.786 252.842 C 18.976 276.859,56.953 298.611,99.333 305.853 C 111.934 308.006,116.662 307.914,119.305 305.465 C 120.909 303.978,135.534 283.929,135.567 283.171 C 135.579 282.902,132.246 281.680,128.160 280.455 C 100.170 272.058,71.081 256.088,69.287 248.133 C 68.098 242.858,72.044 238.049,77.561 238.049 C 79.669 238.049,80.714 238.315,81.870 239.146 C 121.844 267.886,177.869 279.534,235.854 271.159 C 267.942 266.525,293.371 256.739,318.000 239.547 C 325.202 234.520,334.067 242.103,330.237 250.015 C 326.355 258.033,290.895 275.943,266.951 281.978 C 263.716 282.793,263.134 281.479,272.352 294.165 C 282.243 307.776,281.892 307.506,289.268 307.157 C 330.027 305.228,377.893 280.482,393.221 253.415 L 394.878 250.488 394.743 241.707 C 393.839 183.093,371.087 95.740,347.325 59.655 C 336.037 42.513,301.140 26.869,261.064 20.985 C 247.192 18.949,244.916 19.806,241.924 28.194 C 240.594 31.921,240.539 31.862,246.341 32.881 C 272.063 37.399,311.900 53.133,317.728 61.077 C 320.478 64.827,318.746 71.062,314.364 73.184 C 310.925 74.848,309.079 74.405,301.273 70.039 C 242.256 37.032,153.603 37.469,97.236 71.045 C 89.950 75.385,84.897 74.905,82.103 69.609 C 79.525 64.723,81.487 60.689,88.464 56.531 C 105.735 46.235,131.647 36.879,153.902 32.902 C 160.050 31.804,159.850 32.063,158.080 27.474 C 155.216 20.048,152.234 18.927,140.244 20.769 M154.002 148.325 C 182.166 158.762,180.853 205.345,152.170 213.340 C 122.101 221.722,102.536 178.439,125.854 155.122 C 133.532 147.444,144.485 144.799,154.002 148.325 M261.598 147.596 C 285.186 153.708,292.809 187.743,274.648 205.859 C 256.687 223.775,229.113 211.899,225.822 184.829 C 223.061 162.122,241.919 142.496,261.598 147.596 " stroke="none" fill="#000000" fill-rule="evenodd"></path></g></svg>