<svg id="svg" xmlns="http://www.w3.org/2000/svg" xmlns:xlink="http://www.w3.org/1999/xlink" width="400" height="425" viewBox="0, 0, 400,425"><g id="svgg"><path id="path0" d="M35.253 3.906 C 33.597 6.055,24.987 19.961,16.121 34.809 L 0.000 61.805 0.000 218.403 L 0.000 375.000 51.563 375.000 L 103.125 375.000 103.125 400.000 L 103.125 425.000 133.667 425.000 L 164.209 425.000 189.062 400.000 L 213.916 375.000 246.832 375.000 L 279.748 375.000 339.874 314.814 L 400.000 254.629 400.000 127.314 L 400.000 0.000 219.133 0.000 C 78.128 0.000,37.601 0.861,35.253 3.906 M343.750 141.494 L 343.750 226.738 311.341 258.681 L 278.933 290.625 245.004 290.625 L 211.076 290.625 186.788 314.770 L 162.500 338.916 162.500 314.770 L 162.500 290.625 121.875 290.625 L 81.250 290.625 81.250 173.438 L 81.250 56.250 212.500 56.250 L 343.750 56.250 343.750 141.494 M171.875 159.375 L 171.875 215.625 193.750 215.625 L 215.625 215.625 215.625 159.375 L 215.625 103.125 193.750 103.125 L 171.875 103.125 171.875 159.375 M250.000 159.375 L 250.000 215.625 273.438 215.625 L 296.875 215.625 296.875 159.375 L 296.875 103.125 273.438 103.125 L 250.000 103.125 250.000 159.375 " stroke="none" fill="#000000" fill-rule="evenodd"></path></g></svg>