<svg id="svg" xmlns="http://www.w3.org/2000/svg" xmlns:xlink="http://www.w3.org/1999/xlink" width="400" height="400" viewBox="0, 0, 400,400"><g id="svgg"><path id="path0" d="M81.250 71.776 C 9.580 75.758,1.551 89.783,1.581 210.938 C 1.606 308.148,6.958 328.227,36.597 342.291 C 53.909 350.506,175.715 354.955,277.158 351.078 C 369.650 347.542,375.170 345.815,389.915 315.791 L 398.438 298.438 398.438 212.500 C 398.438 84.187,394.593 77.340,319.445 71.841 C 275.887 68.654,138.126 68.616,81.250 71.776 M200.000 174.625 C 218.047 183.838,238.885 194.912,246.306 199.234 L 259.800 207.093 212.466 231.671 C 186.433 245.190,164.540 256.250,163.816 256.250 C 163.092 256.250,162.500 233.633,162.500 205.990 C 162.500 178.346,163.555 156.212,164.844 156.802 C 166.133 157.393,181.953 165.413,200.000 174.625 " stroke="none" fill="#000000" fill-rule="evenodd"></path></g></svg>